<?xml version="1.0" encoding="UTF-8"?>
<svg id="Layer_1" data-name="Layer 1" xmlns="http://www.w3.org/2000/svg" viewBox="0 0 612.49 177.45">
  <defs>
    <style>
      .cls-1 {
        fill: #00989d;
      }

      .cls-2 {
        fill: #d2e321;
      }
    </style>
  </defs>
  <path class="cls-1" d="M130.73,72.57c0,12.78-2.78,24.77-8.35,36-5.58,11.23-13.06,20.03-22.46,26.41-9.4,6.39-19.68,9.17-30.81,8.35-14.63-1.03-27.26-7.72-37.86-20.08v54.11H7.99v-86.55h23.25c2.77,8.64,7.53,15.71,14.22,21.16,6.71,5.46,13.98,8.19,21.81,8.19,10.62,0,19.8-4.68,27.55-14.06,7.74-9.37,11.61-20.54,11.61-33.52,0-13.79-3.74-25.28-11.22-34.44-7.49-9.17-17.32-12.82-29.51-10.97-5.05.61-9.45,2.62-13.19,6.02-3.74,3.41-8.06,8.09-12.92,14.06-4.01,5.15-7.36,8.96-10.05,11.43-2.7,2.48-5.62,3.6-8.74,3.4-6.11,0-10.54-2.72-13.33-8.18-2.78-5.46-4.39-11.8-4.83-19-.43-7.21-.04-17.4,1.18-30.59h22.72c-1.4,9.89-2,16.85-1.83,20.86.17,4.02,1.31,5.92,3.4,5.71,2.61-.4,5.65-3.09,9.13-8.03,4.35-5.55,8.75-10.14,13.19-13.74,4.44-3.6,10.05-6.02,16.85-7.26,11.66-2.27,22.36-.21,32.11,6.18,9.75,6.39,17.41,15.45,22.99,27.18,5.57,11.75,8.35,24.2,8.35,37.38Z"/>
  <path class="cls-1" d="M216.51,115.05c4.96-4.43,6.74-9.73,5.35-15.91-1.04-4.12-3.83-7.26-8.36-9.42-4.53-2.16-11.4-4.58-20.63-7.26-9.92-2.88-18.11-5.72-24.55-8.5-6.44-2.78-12.1-6.85-16.97-12.2-4.88-5.35-7.66-12.46-8.36-21.32-.7-12.56,3.83-22.66,13.58-30.28,9.75-7.62,22.98-10.71,39.69-9.27,8.36.42,15.67,2.06,21.94,4.94,6.27,2.89,11.4,6.03,15.41,9.42,4,3.4,8.18,8.09,12.54,14.06l-14.62,12.98c-5.57-6.8-10.97-11.74-16.19-14.83-5.22-3.09-11.49-4.94-18.8-5.56-8.01-.82-14.88.11-20.63,2.78-5.74,2.68-8.36,6.9-7.83,12.67.35,4.53,2.83,8.03,7.44,10.51,4.61,2.47,11.88,5.25,21.8,8.34,9.92,3.09,18.1,6.08,24.55,8.96,6.44,2.89,12.1,7.06,16.97,12.51,4.87,5.46,7.57,12.62,8.1,21.47.87,14.83-3.96,25.95-14.49,33.37-10.54,7.42-23.72,10.5-39.56,9.27-8.71-.62-16.41-2.42-23.11-5.41-6.7-2.98-12.1-6.28-16.19-9.89-4.09-3.6-8.32-8.6-12.66-14.98l15.67-12.05c2.78,3.92,5.57,7.06,8.36,9.42,2.78,2.37,6.44,4.59,10.97,6.64,4.52,2.06,9.83,3.4,15.93,4.02,11.49,1.44,19.71-.05,24.68-4.48Z"/>
  <path class="cls-1" d="M467.06,52.18v-2.78c0-13.8-2.27-21.01-6.79-21.63-5.4-.62-10.71,4.28-15.93,14.68-5.22,10.4-9.84,22.76-13.84,37.07-4.01,14.32-8.79,34.66-14.36,61.02h-23.24V4.29h23.24v70.75c4.35-17.3,8.49-30.59,12.4-39.86,3.92-9.27,8.92-17.25,15.01-23.94,6.09-6.69,13.14-9.73,21.15-9.11,8.7.62,15.19,5.61,19.45,14.98,4.26,9.38,6.4,19.73,6.4,31.05v4.02h-23.5Z"/>
  <path class="cls-1" d="M544.09,118.61c4.7-.41,8.96-2.21,12.79-5.41,3.83-3.19,8.27-7.67,13.32-13.44,3.83-4.32,7.01-7.67,9.53-10.04,2.52-2.36,5.09-3.86,7.7-4.48,7.31-2.06,12.71-.77,16.19,3.86,3.48,4.63,5.52,10.66,6.14,18.07.61,7.42.13,18.23-1.44,32.44h-22.2c1.91-9.47,2.78-16.17,2.61-20.08-.17-3.91-1.48-6.18-3.92-6.8-1.39-.2-2.83.31-4.31,1.54-1.48,1.24-3.62,3.4-6.4,6.49-4.53,5.36-9.05,9.84-13.58,13.44-4.53,3.61-10.1,6.23-16.71,7.88-5.22,1.24-11.23.82-18.02-1.24-6.79-2.06-12.66-6.23-17.63-12.51-4.96-6.28-7.36-14.88-7.18-25.8.17-9.47,2.39-17.09,6.66-22.86,4.26-5.76,9.62-10.04,16.06-12.82,6.44-2.78,14.01-4.99,22.72-6.64.35,0,.87-.1,1.57-.31,10.27-1.85,18.1-3.96,23.5-6.33,5.39-2.36,8.88-6.43,10.45-12.2,1.57-4.94.13-9.83-4.31-14.68-4.44-4.84-12.23-6.64-23.37-5.41-8.01.62-14.84,2.78-20.5,6.49-5.66,3.71-10.49,9.58-14.49,17.61l-14.88-12.67c4.52-9.06,11.14-16.58,19.85-22.55,8.7-5.97,18.71-9.27,30.03-9.89,12.01-.82,23.33,1.34,33.95,6.49,10.62,5.15,16.36,14.63,17.23,28.42.69,9.48-.91,16.99-4.83,22.55-3.92,5.56-8.88,9.53-14.89,11.89-6.01,2.37-13.97,4.69-23.89,6.95-11.32,2.47-19.85,5.2-25.59,8.19-5.74,2.99-9.05,7.88-9.92,14.67-.52,4.74.56,9.27,3.26,13.59,2.7,4.32,7.53,6.18,14.49,5.56Z"/>
  <path class="cls-1" d="M371.9,120.7c.06.98.09,1.96.09,2.96s-.02,1.97-.09,2.95c-.22,4.06-.88,7.99-1.96,11.76-6.42,22.47-27.15,38.98-51.64,38.98s-45.23-16.5-51.64-38.98c-.15-.52-.28-1.03-.42-1.55l21.76-10.86c0,.06.01.12.01.18,1.26,15.6,14.36,27.91,30.28,27.91,16.76,0,30.39-13.65,30.39-30.39v-18.76c-8.66,5.97-19.13,9.47-30.39,9.47s-21.65-3.46-30.28-9.39c-1.63-1.12-3.2-2.32-4.7-3.62-7.86-6.74-13.74-15.73-16.66-25.97-1.09-3.83-1.77-7.83-1.97-11.95v-22.78h23.33v17.53c-.07.82-.11,1.65-.11,2.49s.04,1.67.11,2.49c1.26,15.6,14.36,27.91,30.28,27.91,16.76,0,30.39-13.65,30.39-30.39v-20.02h23.21v17.07c.06.98.09,1.96.09,2.96s-.02,1.97-.09,2.95v56.92s-.01.01-.01.01c.01.05.01.1.01.15Z"/>
  <rect class="cls-2" x="348.69" y="1.34" width="23.21" height="23.42"/>
  <rect class="cls-2" x="264.67" y="1.34" width="23.42" height="23.42"/>
</svg>